<svg xmlns="http://www.w3.org/2000/svg" viewBox="0 0 64 64" fill="none">
  <circle cx="32" cy="32" r="30" fill="#3b82f6" opacity="0.1"/>
  <circle cx="32" cy="32" r="30" stroke="#3b82f6" stroke-width="2"/>
  <!-- Огонь -->
  <path d="M32 14Q26 24 24 30Q22 36 28 38Q30 39 32 36Q34 39 36 38Q42 36 40 30Q38 24 32 14Z" fill="#f97316"/>
  <path d="M32 18Q28 26 26 30Q24 34 28 36Q30 37 32 34Q34 37 36 36Q40 34 38 30Q36 26 32 18Z" fill="#f59e0b"/>
  <path d="M32 22Q30 28 29 30Q28 33 30 34Q31 35 32 32Q33 35 34 34Q36 33 35 30Q34 28 32 22Z" fill="#ef4444"/>
  <!-- Капли воды -->
  <circle cx="44" cy="38" r="2" fill="#3b82f6" opacity="0.6"/>
  <circle cx="48" cy="42" r="1.5" fill="#3b82f6" opacity="0.4"/>
  <circle cx="46" cy="46" r="1" fill="#3b82f6" opacity="0.3"/>
</svg>